<svg id="Group_144" data-name="Group 144" xmlns="http://www.w3.org/2000/svg" width="395.562" height="70" viewBox="0 0 395.562 70">
  <path id="Path_274" data-name="Path 274" d="M460.018,43.591,443.3,37.507,447.394,60.7,461.02,49.269Z" transform="translate(-442.292 -7.264)" fill="#f99900"/>
  <path id="Path_275" data-name="Path 275" d="M446.452,57.529l17.932,15.046-4.622-26.215Z" transform="translate(-440.937 -3.724)" fill="#30a053"/>
  <path id="Path_276" data-name="Path 276" d="M474.366,47.09,459.535,72.78h23.626l-4.236-24.03Z" transform="translate(-435.389 -3.405)" fill="#004380"/>
  <path id="Path_277" data-name="Path 277" d="M487.281,24.1,470.888,37.85l.843,4.776h4.851Z" transform="translate(-430.37 -12.722)" fill="#6f9300"/>
  <path id="Path_278" data-name="Path 278" d="M477.633,71.708l18.042-15.139-22.133-8.056Z" transform="translate(-429.324 -2.742)" fill="#b287ba"/>
  <path id="Path_279" data-name="Path 279" d="M490.222,42.894l-3.415-19.37-11.183,19.37Z" transform="translate(-428.297 -12.969)" fill="#d9aa71"/>
  <path id="Path_280" data-name="Path 280" d="M495.263,42.955,483.97,23.4l3.449,19.56Z" transform="translate(-424.638 -12.952)" fill="#d0a300"/>
  <path id="Path_281" data-name="Path 281" d="M491.873,37.085h0Z" transform="translate(-421.032 -7.013)" fill="#c1ae8a"/>
  <path id="Path_282" data-name="Path 282" d="M446.162,53.722h0Z" transform="translate(-440.779 0.051)" fill="#c1ae8a"/>
  <path id="Path_283" data-name="Path 283" d="M473.993,16.8l-21.3,7.751h22.662Z" transform="translate(-438.321 -15.664)" fill="#d4d5d5"/>
  <path id="Path_284" data-name="Path 284" d="M455.11,22.955,443.444,43.162h15.23Z" transform="translate(-442.192 -13.145)" fill="#e64800"/>
  <path id="Path_285" data-name="Path 285" d="M489.179,24.547l-21.224-7.724,1.362,7.724Z" transform="translate(-431.717 -15.657)" fill="#db002f"/>
  <path id="Path_286" data-name="Path 286" d="M469.783,37.456H454.7l.943,5.348,5.418,1.971Z" transform="translate(-437.333 -6.969)" fill="#d2d300"/>
  <path id="Path_287" data-name="Path 287" d="M455.49,41.943l.783,4.436,3.449-2.895Z" transform="translate(-436.816 -5.025)" fill="#ffec00"/>
  <path id="Path_288" data-name="Path 288" d="M476,37.456h-6.921l-9.237,7.751,13.9,5.058,3.46-5.994Z" transform="translate(-435.154 -7.066)" fill="#fff"/>
  <path id="Path_289" data-name="Path 289" d="M470.01,47.936l3.785,1.378-1.072-6.078Z" transform="translate(-430.539 -4.51)" fill="#ffec00"/>
  <path id="Path_290" data-name="Path 290" d="M456.172,46.991l4.584,26,14.143-24.5-14.31-5.208Z" transform="translate(-436.757 -5.105)" fill="#dd4089"/>
  <path id="Path_291" data-name="Path 291" d="M476.488,37.456l-4.052,7.019,1.407,7.978,22.131,8.056-4.066-23.054Z" transform="translate(-429.825 -7.281)" fill="#63bcbc"/>
  <path id="Path_292" data-name="Path 292" d="M478.5,38.013l-2.677-15.187h-23.7l3.6,20.4h16.58Z" transform="translate(-438.631 -13.203)" fill="#32a3e0"/>
  <path id="Path_293" data-name="Path 293" d="M475.621,37.456h-4.027l.941,5.345Z" transform="translate(-429.859 -6.936)" fill="#ffec00"/>
  <path id="Path_294" data-name="Path 294" d="M445.339,37.456l13.505,4.916-.867-4.916Z" transform="translate(-441.346 -6.93)" fill="#4d1200"/>
  <path id="Path_295" data-name="Path 295" d="M488.682,22.826H469.014L471.549,37.2Z" transform="translate(-431.234 -13.141)" fill="#efa1ac"/>
  <path id="Path_296" data-name="Path 296" d="M472.439,37.978l-.7-3.966-4.726,3.966Z" transform="translate(-431.86 -8.371)" fill="#ffec00"/>
  <path id="Path_297" data-name="Path 297" d="M486.45,37.456l3.935,22.316,3.935-22.316Z" transform="translate(-423.509 -7.265)" fill="#dd4089"/>
  <path id="Path_298" data-name="Path 298" d="M514.58,47.04l.1-.542h0l-.316-.542h-7.843l-3.45-19.461-.8-1.375-1.5-.544H480.907l-1.362-7.685-.592-.215-.521.188,1.367,7.711H457.137l-1.5.544-.424.732,3.563,20.1h-15.23l-.316.544.11.618,16.713,6.051,1,5.649L447.428,70.19l.11.618.425.355,13.31-11.111,4.622,26.08.652.544h.63L482.01,61.118l4.557,1.651,4.237,23.907h.555l.483-.4L487.753,63.2l22.131,8.013.483-.4.278-1.565-3.935-22.2Zm-9.171-1.086h-14.6l11.183-19.271Zm-20.712,0-.842-4.753,16.393-13.683-10.7,18.436Zm4.221,1.086-3.086,5.317-.943-5.317Zm11.852-21.378-17.133,14.3-2.535-14.3ZM483.588,45.955h-5.426l4.726-3.947Zm-37.26,1.086h12.639l.866,4.891Zm13.555-1.086-3.6-20.292h23.7l2.677,15.109-6.207,5.183Zm1.135,6.406-.941-5.32H475.16l-8.723,7.283Zm.22,1.236,4.232,1.533-3.45,2.88Zm5.586,31.514-4.585-25.865,4.418-3.687,14.31,5.182Zm14.7-25.326-13.9-5.034,9.239-7.711h6.919l1.2,6.782Zm1.041.377,2.714-4.674,1.071,6.045Zm27.1,9.814-22.131-8.013-1.407-7.939,4.052-6.983H505.6Z" transform="translate(-443.229 -16.676)" fill="#fff"/>
  <rect id="Rectangle_45" data-name="Rectangle 45" width="8.027" height="52.121" transform="translate(91.967 8.959)" fill="#1a1311"/>
  <path id="Path_299" data-name="Path 299" d="M532.568,22.736c6.214,0,10.2.761,13.5,2.969,5.6,3.732,6.06,9.751,6.06,11.959a13.957,13.957,0,0,1-11.353,14.169l15.955,21.708H547.3l-14.652-20.8h-1.38v20.8h-7.826V22.736Zm-1.3,23.308h2.454c2.148,0,10.893-.227,10.893-8.3,0-7.161-6.828-7.846-10.663-7.846h-2.685Z" transform="translate(-407.396 -13.057)" fill="#1a1311"/>
  <path id="Path_300" data-name="Path 300" d="M606.245,48.455c0,14.934-11.277,26.363-26.619,26.363s-26.619-11.429-26.619-26.363,11.277-26.363,26.619-26.363,26.619,11.429,26.619,26.363m-7.824,0c0-11.277-7.825-19.2-18.795-19.2s-18.795,7.923-18.795,19.2,7.824,19.2,18.795,19.2,18.795-7.923,18.795-19.2" transform="translate(-394.623 -13.336)" fill="#1a1311"/>
  <path id="Path_301" data-name="Path 301" d="M610.457,22.736c7.134,0,13.348.762,19.024,4.951,6.215,4.647,9.819,12.035,9.819,20.491s-3.528,15.767-10.279,20.489c-5.984,4.19-11.585,4.876-18.719,4.876H599.717V22.736ZM607.541,66.23h3.375c3.836,0,9.129-.3,13.578-3.58a17.868,17.868,0,0,0,6.981-14.472,18.058,18.058,0,0,0-6.9-14.626c-4.449-3.2-9.9-3.5-13.655-3.5h-3.375Z" transform="translate(-374.444 -13.057)" fill="#1a1311"/>
  <path id="Path_302" data-name="Path 302" d="M688.416,48.455c0,14.934-11.277,26.363-26.619,26.363s-26.619-11.429-26.619-26.363S646.454,22.092,661.8,22.092s26.619,11.429,26.619,26.363m-7.824,0c0-11.277-7.824-19.2-18.795-19.2S643,37.178,643,48.455s7.824,19.2,18.795,19.2,18.795-7.923,18.795-19.2" transform="translate(-359.125 -13.336)" fill="#1a1311"/>
  <path id="Path_303" data-name="Path 303" d="M691.018,22.736c6.213,0,10.2.761,13.5,2.969,5.6,3.732,6.06,9.751,6.06,11.959a13.957,13.957,0,0,1-11.353,14.169l15.956,21.708h-9.436l-14.652-20.8h-1.38v20.8h-7.826V22.736Zm-1.3,23.308h2.454c2.148,0,10.893-.227,10.893-8.3,0-7.161-6.828-7.846-10.663-7.846h-2.685Z" transform="translate(-338.947 -13.057)" fill="#1a1311"/>
  <rect id="Rectangle_46" data-name="Rectangle 46" width="7.824" height="50.807" transform="translate(387.738 9.679)" fill="#1a1311"/>
</svg>
