<svg id="Group_146" data-name="Group 146" xmlns="http://www.w3.org/2000/svg" xmlns:xlink="http://www.w3.org/1999/xlink" width="317.585" height="89.552" viewBox="0 0 317.585 89.552">
  <defs>
    <clipPath id="clip-path">
      <rect id="Rectangle_48" data-name="Rectangle 48" width="89.552" height="89.552" fill="none"/>
    </clipPath>
    <clipPath id="clip-path-2">
      <rect id="Rectangle_49" data-name="Rectangle 49" width="198.033" height="56.375" fill="#1b519f"/>
    </clipPath>
  </defs>
  <g id="Group_111" data-name="Group 111" transform="translate(0 0)">
    <g id="Group_107" data-name="Group 107" clip-path="url(#clip-path)">
      <path id="Path_304" data-name="Path 304" d="M23.578,50.319a21.96,21.96,0,1,1,42.52.027,105.5,105.5,0,0,1,23.341-.8A44.843,44.843,0,1,0,0,44.844a45.208,45.208,0,0,0,.3,5.2,104.3,104.3,0,0,1,23.275.27" transform="translate(0 0)" fill="#008c4f"/>
      <path id="Path_305" data-name="Path 305" d="M52.524,128.166a86.359,86.359,0,0,1-32.065,5.817,93.179,93.179,0,0,1-11.131-.739,44.85,44.85,0,0,0,84.865-10.1,98.092,98.092,0,0,0-41.67,5.024" transform="translate(-5.308 -69.831)" fill="#0085d1"/>
      <path id="Path_306" data-name="Path 306" d="M3.618,129.232a86.565,86.565,0,0,0,37.276-1.868A98.476,98.476,0,0,0,1.886,123.25a44.755,44.755,0,0,0,1.581,5.958Z" transform="translate(-1.073 -69.89)" fill="#008c4f"/>
    </g>
  </g>
  <g id="Group_112" data-name="Group 112" transform="translate(119.552 16.588)">
    <g id="Group_108" data-name="Group 108" transform="translate(0 0)" clip-path="url(#clip-path-2)">
      <path id="Path_307" data-name="Path 307" d="M16.855,3.359a40.847,40.847,0,0,1,4.97,2.49c2.107,1.367,3.287,2.6,3.722,4.157.311,1.553-.368,2.982-1.921,3.23-1.926.373-2.858-1.926-4.473-3.976a34.528,34.528,0,0,0-3.287-3.479C13.32,11.373,8.66,19.32,2.019,24.662c-1.3,1.056-2.671-.129-1.677-1.434C6.3,16.219,10.71,8.143,12.258.88c.067-.621.435-.808,1-.808,2.423.311,5.462,1.3,5.462,2.236,0,.621-.683.932-1.8.932ZM16.669,47.01c3.417-.74,6.455-1.491,9-2.236,2.485-.678,3.044,1.18.745,2.236A96.082,96.082,0,0,1,6.486,52.969c-.248,1.5-.74,2.8-1.739,2.8-1.3,0-2.293-2.423-2.852-5.777-.062-.559.186-.745.678-.808,3.665-.373,7.082-.87,10.121-1.429V30.931H4.255c-.813,0-1.367-.248-1.367-1.242,0-.932.554-1.242,1.367-1.242h8.438v-6.58H8.163c-.808,0-1.367-.248-1.367-1.242,0-.932.559-1.242,1.367-1.242H18.222c1.056-1.677,2.3-3.292,2.982-3.292,1.118,0,4.219,3.355,4.219,4.535,0,.932-1.113,1.242-2.3,1.242h-5.27a1.834,1.834,0,0,1-1.185.87v5.71h2.858c1.118-1.677,2.361-3.412,3.1-3.412,1.118,0,4.224,3.412,4.224,4.654,0,.87-1.18,1.242-2.3,1.242H16.669ZM5.679,40.12c-.181-1.118-.5-2.361-.8-3.541C4.5,35.28,5.5,34.41,6.8,35.4c2.361,1.926,4.405,4.473,3.665,6.771A2.41,2.41,0,0,1,7.3,43.78c-1.3-.435-1.367-1.921-1.62-3.66m19.744-3.292c.062.5-.492.932-1.61,1.18-.994,1.491-2.174,2.982-3.417,4.6-1.18,1.429-2.485.621-2.05-.994a44.51,44.51,0,0,0,1.615-6.58c0-.564.311-1,.87-.87,2.361.373,4.405,1.739,4.592,2.666m25.268,2.8c1.3-1.983,2.925-4.157,3.789-4.157,1.242,0,5.156,3.784,5.156,5.208,0,.937-1.242,1.434-2.92,1.434h-12.1c0,4.778.057,10.923.057,12.165,0,1.367-.927,1.931-2.8,1.931a1.617,1.617,0,0,1-1.8-1.739c0-1.185.186-7.517.311-12.357H27.038c-.808,0-1.367-.248-1.367-1.242,0-.932.559-1.242,1.367-1.242H40.451c.062-1.3.062-2.361.062-2.92v-5.9h-7.02a22.524,22.524,0,0,1-4.716,6.455c-1.242,1.118-2.609.311-1.8-1.175a34.493,34.493,0,0,0,4.845-14.966c.119-.5.5-.87,1.3-.745,2.231.373,5.648,1.677,5.648,2.8,0,.87-.808,1.242-2.733,1.361-.435,1.185-.87,2.423-1.429,3.789h5.9a95.658,95.658,0,0,0-.559-9.867c-.124-.564.248-.87.8-.87,2.3,0,6.585.243,6.585,1.672,0,.808-.994,1.429-2.728,1.739,0,1.3-.067,4.286-.067,7.325h4.721c1.175-1.864,2.671-3.846,3.479-3.846,1.175,0,4.84,3.6,4.9,4.965,0,.932-1.242,1.367-2.8,1.367H44.546v8.816ZM26.6,13.175c0-.559.316-.751.751-.683q3.72.186,7.077.186A53.309,53.309,0,0,0,38.525.631a.86.86,0,0,1,1.18-.559c2.852.745,6.083,2.3,5.964,3.6-.067.87-1.491,1.118-2.8,1.18a88.612,88.612,0,0,1-4.535,7.822c5.027-.062,9.375-.373,13.035-.689a31.385,31.385,0,0,0-2.858-3.536c-.616-.683.067-1.921,1.372-1.486,5.834,2.045,8.562,5.834,8.94,8.314a2.506,2.506,0,0,1-2.174,3.044c-1.18.129-1.864-.435-2.547-1.553-.373-.621-.745-1.491-1.242-2.418A126.554,126.554,0,0,1,30.89,16.9c-.435,1.424-1.056,2.666-2.112,2.542-1.3-.186-1.988-2.858-2.174-6.269" transform="translate(0 0.054)" fill="#1b519f"/>
      <path id="Path_308" data-name="Path 308" d="M57.131,3.464c.937-1.242,2.122-2.547,2.8-2.547,1.429,0,5.4,2.982,5.4,4.411,0,.989-1.294,1.61-2.666,2.174-.435,9.127.248,37.868.248,42.527,0,1.926-1.175,2.418-2.92,2.418A1.911,1.911,0,0,1,58,50.34V47.483H19.884v3.292c0,1.367-.937,2.174-2.982,2.174a1.63,1.63,0,0,1-1.8-1.864c0-7.455.745-40.358-.248-49.485a.847.847,0,0,1,.87-.87,16.089,16.089,0,0,1,6.455,2.733ZM20.065,6.011c-.181,3.349-.248,13.165-.248,17.819H36.641V5.949h-16.2ZM19.884,45h16.7V26.315H19.816ZM41.051,23.83h17.14c0-7.884.057-15.152,0-17.881H42.61a.236.236,0,0,1,.057.186c0,.683-.559,1.118-1.615,1.486ZM58.068,45c0-4.659.062-11.8.124-18.688H41.051V45Z" transform="translate(62.008 3.055)" fill="#1b519f"/>
      <path id="Path_309" data-name="Path 309" d="M73.976,8.878c1.372-2.045,3.173-4.468,4.162-4.468,1.3,0,5.9,3.914,5.9,5.462,0,.932-1.118,1.491-3.479,1.491h-51.9c-.813,0-1.367-.248-1.367-1.242,0-.927.554-1.242,1.367-1.242H53.243A78.414,78.414,0,0,0,53.057.932.781.781,0,0,1,53.927,0c1.056,0,7.082.186,7.082,1.864,0,1.3-1.372,1.8-3.292,2.231V8.878ZM70.627,22.043c.932-1.242,2.3-2.671,2.733-2.671,1.486,0,5.462,3.292,5.462,4.473,0,.808-1.18,1.424-2.48,1.926-.124,5.021-.062,13.1-.124,19.869,0,3.717-3.168,5.27-5.839,5.27s-1.3-2.293-5.467-3.536c-1.3-.5-1.051-2.05.129-2.05.5,0,3.412.373,4.6.373,1.548,0,2.107-.559,2.231-1.983.124-2.552.124-6.958.124-10.312V24.522H57.835v9.562c0,3.044.129,18.129.129,20.3,0,1.367-1.056,1.988-2.982,1.988a1.688,1.688,0,0,1-1.926-1.739c0-2.107.5-16.7.5-20.3,0-1.18.062-5.337-.062-9.81h-12.1c-.316.062-.626.129-.932.192-.186,2.355-.186,9.743-.186,11.239l.057,13.719c0,1.367-.989,2.045-2.982,2.045a1.589,1.589,0,0,1-1.8-1.739c.062-5.151.5-22.783-.186-29.425a.768.768,0,0,1,.865-.808,17.275,17.275,0,0,1,5.715,2.3H53.43a68.386,68.386,0,0,0-.559-8.381c-.124-.621.248-.932.808-.932,2.671,0,6.952.311,6.952,1.734,0,.87-.994,1.553-2.728,1.864-.067,1.118-.067,3.292-.067,5.715Z" transform="translate(113.993 0.002)" fill="#1b519f"/>
    </g>
  </g>
</svg>
