<svg xmlns="http://www.w3.org/2000/svg" width="226" height="94.335" viewBox="0 0 226 94.335">
  <defs>
    <style>
      .cls-1 {
        fill: #e989ae;
      }
    </style>
  </defs>
  <path id="パス_78" data-name="パス 78" class="cls-1" d="M100.727,61.243a9.6,9.6,0,0,1-9.585-11.855L93.16,34.758A20.269,20.269,0,0,1,100.6,21.895a21.541,21.541,0,0,1,14-5.045,21.878,21.878,0,0,1,14.251,5.045,20.269,20.269,0,0,1,7.441,12.864l2.27,14.629a10.067,10.067,0,0,1-2.144,8.324,9.453,9.453,0,0,1-7.693,3.531ZM32.877,73.1a14.294,14.294,0,0,1-7.315-1.766,8.685,8.685,0,0,1-4.036-5.549,9.261,9.261,0,0,1,.126-3.405,14.1,14.1,0,0,1,1.135-3.153c0,.166-.086-.166-.252-1.009q-.757-.25-2.018-4.036a7.576,7.576,0,0,1,.631-4.036,14.61,14.61,0,0,1,2.144-3.531l.252-.252a9.417,9.417,0,0,1,2.9-5.549,8.622,8.622,0,0,1,6.18-2.27c.166,0,1.347.086,3.531.252h.5a7,7,0,0,1,2.27-1.387,7.3,7.3,0,0,1,2.775-.631,8.423,8.423,0,0,1,3.783.757,7.409,7.409,0,0,1,2.522,2.018h.5a11,11,0,0,1,4.414,1.513,6.392,6.392,0,0,1,2.9,4.036,7.8,7.8,0,0,0-.126,2.4,4.476,4.476,0,0,1-.126,1.892A4.23,4.23,0,0,0,55.83,50.4,18.46,18.46,0,0,1,57.6,53.045a7.021,7.021,0,0,1,.757,3.405,21.223,21.223,0,0,1-1.009,3.531q-.25,0,0,.757a12.066,12.066,0,0,1,.252,2.775,8.6,8.6,0,0,1-3.279,6.81A11.037,11.037,0,0,1,47,73.1Zm158.4.5a13.623,13.623,0,0,1-10.089-4.414A14.5,14.5,0,0,1,176.9,58.721a9.831,9.831,0,0,1,.757-3.657q.757-1.892,1.766-3.91l-5.3-4.288a2.422,2.422,0,0,1-.631-3.657c.923-1.428,1.978-2.144,3.153-2.144h14.629a13.676,13.676,0,0,1,10.215,4.288,14.013,14.013,0,0,1,4.162,10.089v3.531a14.314,14.314,0,0,1-4.162,10.342A13.676,13.676,0,0,1,191.279,73.6ZM1.6,111.185V101.6q0-9.837,10.089-16.143t26.484-6.306a20.977,20.977,0,0,1,3.153.252,20.978,20.978,0,0,0,3.153.252A40.3,40.3,0,0,0,41.7,87.979,41.848,41.848,0,0,0,40.7,97.06v14.125Zm60.536,0V97.817q0-13.621,14.5-21.44T114.6,68.558q23.707,0,38.087,7.819t14.377,21.44v13.368Zm129.4-32.033q16.4,0,26.232,6.306T227.6,101.6v9.585H188.5V97.06a47.335,47.335,0,0,0-.883-9.08,29.566,29.566,0,0,0-2.9-8.324,22.624,22.624,0,0,0,3.405-.252A22.622,22.622,0,0,1,191.531,79.151Z" transform="translate(-1.6 -16.85)"/>
</svg>
