<svg id="Group_125" data-name="Group 125" xmlns="http://www.w3.org/2000/svg" xmlns:xlink="http://www.w3.org/1999/xlink" width="78.347" height="119" viewBox="0 0 78.347 119">
  <defs>
    <clipPath id="clip-path">
      <rect id="Rectangle_63" data-name="Rectangle 63" width="78.347" height="119" fill="none"/>
    </clipPath>
  </defs>
  <path id="Path_329" data-name="Path 329" d="M35.458,72.621,19.49,116.5l-5.312-11.393L2.786,110.42,18.755,66.541" fill="#1b519f"/>
  <g id="Group_122" data-name="Group 122">
    <g id="Group_121" data-name="Group 121" clip-path="url(#clip-path)">
      <path id="Path_330" data-name="Path 330" d="M35.458,72.621,19.49,116.5l-5.312-11.393L2.786,110.42,18.755,66.541" fill="none" stroke="#1b519f" stroke-linecap="round" stroke-linejoin="round" stroke-width="5"/>
    </g>
  </g>
  <path id="Path_331" data-name="Path 331" d="M43.175,72.621,59.143,116.5l5.312-11.393,11.392,5.313L59.878,66.541" fill="#1b519f"/>
  <g id="Group_124" data-name="Group 124">
    <g id="Group_123" data-name="Group 123" clip-path="url(#clip-path)">
      <path id="Path_332" data-name="Path 332" d="M43.175,72.621,59.143,116.5l5.312-11.393,11.392,5.313L59.878,66.541" fill="none" stroke="#1b519f" stroke-linecap="round" stroke-linejoin="round" stroke-width="5"/>
      <path id="Path_333" data-name="Path 333" d="M38.838,76.913c-2.693,0-4.873-4.253-7.392-4.826-2.6-.591-6.407,2.28-8.755,1.148-2.386-1.152-2.5-5.929-4.554-7.565S11.4,64.964,9.751,62.9s.316-6.4-.835-8.789c-1.132-2.347-5.763-3.527-6.355-6.129-.572-2.52,3.076-5.586,3.076-8.279s-3.648-5.76-3.076-8.28c.592-2.6,5.223-3.782,6.355-6.13,1.151-2.386-.8-6.739.836-8.789s6.326-1.12,8.385-2.765,2.169-6.413,4.554-7.565c2.348-1.132,6.153,1.739,8.754,1.148,2.52-.573,4.7-4.826,7.393-4.826s4.873,4.253,7.391,4.826c2.6.591,6.408-2.28,8.756-1.147,2.386,1.151,2.505,5.928,4.554,7.565s6.742.7,8.385,2.765-.315,6.4.836,8.789c1.132,2.347,5.763,3.527,6.354,6.129.573,2.52-3.076,5.586-3.076,8.28s3.649,5.759,3.077,8.279c-.592,2.6-5.223,3.782-6.355,6.13-1.151,2.386.8,6.739-.836,8.789s-6.326,1.12-8.385,2.765-2.17,6.413-4.554,7.565c-2.348,1.132-6.153-1.739-8.754-1.148-2.52.573-4.7,4.826-7.393,4.826" fill="#e989ae"/>
      <path id="Path_334" data-name="Path 334" d="M38.838,76.913c-2.693,0-4.873-4.253-7.392-4.826-2.6-.591-6.407,2.28-8.755,1.148-2.386-1.152-2.5-5.929-4.554-7.565S11.4,64.964,9.751,62.9s.316-6.4-.835-8.789c-1.132-2.347-5.763-3.527-6.355-6.129-.572-2.52,3.076-5.586,3.076-8.279s-3.648-5.76-3.076-8.28c.592-2.6,5.223-3.782,6.355-6.13,1.151-2.386-.8-6.739.836-8.789s6.326-1.12,8.385-2.765,2.169-6.413,4.554-7.565c2.348-1.132,6.153,1.739,8.754,1.148,2.52-.573,4.7-4.826,7.393-4.826s4.873,4.253,7.391,4.826c2.6.591,6.408-2.28,8.756-1.147,2.386,1.151,2.505,5.928,4.554,7.565s6.742.7,8.385,2.765-.315,6.4.836,8.789c1.132,2.347,5.763,3.527,6.354,6.129.573,2.52-3.076,5.586-3.076,8.28s3.649,5.759,3.077,8.279c-.592,2.6-5.223,3.782-6.355,6.13-1.151,2.386.8,6.739-.836,8.789s-6.326,1.12-8.385,2.765-2.17,6.413-4.554,7.565c-2.348,1.132-6.153-1.739-8.754-1.148C43.711,72.66,41.531,76.913,38.838,76.913Z" fill="none" stroke="#fff" stroke-linejoin="round" stroke-width="5"/>
      <path id="Path_335" data-name="Path 335" d="M58.334,39.706a19.5,19.5,0,1,1-19.5-19.5,19.5,19.5,0,0,1,19.5,19.5" fill="#fff"/>
      <path id="Path_336" data-name="Path 336" d="M58.334,39.706a19.5,19.5,0,1,1-19.5-19.5A19.5,19.5,0,0,1,58.334,39.706Z" fill="none" stroke="#fff" stroke-miterlimit="10" stroke-width="5"/>
    </g>
  </g>
</svg>
