<svg xmlns="http://www.w3.org/2000/svg" xmlns:xlink="http://www.w3.org/1999/xlink" width="120" height="106.848" viewBox="0 0 120 106.848">
  <defs>
    <clipPath id="clip-path">
      <rect id="Rectangle_62" data-name="Rectangle 62" width="120" height="106.848" transform="translate(0 0)" fill="none"/>
    </clipPath>
  </defs>
  <g id="Group_120" data-name="Group 120" transform="translate(0 0)">
    <g id="Group_119" data-name="Group 119" clip-path="url(#clip-path)">
      <path id="Path_325" data-name="Path 325" d="M45.42,104.348c-20.473-19.889-1.994-27.795.5-35.114C48.08,62.876,43.66,58.04,37.762,58.04H26.589a8.877,8.877,0,0,1,0-17.753h28.9a18.894,18.894,0,0,0,0-37.787H2.5" fill="none" stroke="#1b519f" stroke-linecap="round" stroke-linejoin="round" stroke-width="5"/>
      <line id="Line_13" data-name="Line 13" x2="11.17" y2="11.229" transform="translate(100.072 38.177)" fill="none" stroke="#fff" stroke-linecap="round" stroke-linejoin="round" stroke-width="5"/>
      <line id="Line_14" data-name="Line 14" x2="11.17" y2="11.229" transform="translate(106.33 31.886)" fill="none" stroke="#fff" stroke-linecap="round" stroke-linejoin="round" stroke-width="5"/>
      <path id="Path_326" data-name="Path 326" d="M53.478,85.019,92.249,46.042l11.169,11.229L64.648,96.248l-19.228,8.1Z" fill="#fff"/>
      <path id="Path_327" data-name="Path 327" d="M53.478,85.019,92.249,46.042l11.169,11.229L64.648,96.248l-19.228,8.1Z" fill="none" stroke="#fff" stroke-linejoin="round" stroke-width="5"/>
    </g>
  </g>
</svg>
