<svg xmlns="http://www.w3.org/2000/svg" width="85.612" height="140" viewBox="0 0 85.612 140">
  <defs>
    <style>
      .cls-1 {
        fill: #e989ae;
      }
    </style>
  </defs>
  <path id="パス_114" data-name="パス 114" class="cls-1" d="M41.3,128.378H66.814V122.67H41.3ZM22.665,143.15a10.946,10.946,0,0,1-7.974-3.441,10.946,10.946,0,0,1-3.441-7.974V14.565a10.946,10.946,0,0,1,3.441-7.974A10.946,10.946,0,0,1,22.665,3.15H85.447A10.946,10.946,0,0,1,93.42,6.591a10.946,10.946,0,0,1,3.441,7.974v117.17A11.767,11.767,0,0,1,85.447,143.15Zm-4.029-34.916H89.475V26.315H18.636Z" transform="translate(-11.25 -3.15)"/>
</svg>
