<svg xmlns="http://www.w3.org/2000/svg" xmlns:xlink="http://www.w3.org/1999/xlink" width="408" height="334.642" viewBox="0 0 408 334.642">
  <defs>
    <style>
      .cls-1 {
        fill: none;
      }

      .cls-2 {
        clip-path: url(#clip-path);
      }

      .cls-3 {
        fill: #1b519f;
      }

      .cls-4 {
        fill: #e989ae;
      }

      .cls-5 {
        fill: #c8c9d5;
      }
    </style>
    <clipPath id="clip-path">
      <path id="長方形_17" data-name="長方形 17" class="cls-1" d="M1351.406,343.042h0c112.666,0,204,91.334,204,204V677.684h-408V547.042C1147.406,434.376,1238.74,343.042,1351.406,343.042Z"/>
    </clipPath>
  </defs>
  <g id="グループ_77" data-name="グループ 77" transform="translate(-1147.406 -343.042)">
    <g id="グループ_58" data-name="グループ 58" class="cls-2">
      <g id="グループ_56" data-name="グループ 56">
        <path id="線_2" data-name="線 2" class="cls-3" d="M72.492,2.5H0A2.5,2.5,0,0,1-2.5,0,2.5,2.5,0,0,1,0-2.5H72.492a2.5,2.5,0,0,1,2.5,2.5A2.5,2.5,0,0,1,72.492,2.5Z" transform="translate(1278.632 621.133)"/>
        <path id="線_3" data-name="線 3" class="cls-3" d="M72.492,2.5H0A2.5,2.5,0,0,1-2.5,0,2.5,2.5,0,0,1,0-2.5H72.492a2.5,2.5,0,0,1,2.5,2.5A2.5,2.5,0,0,1,72.492,2.5Z" transform="translate(1278.632 633.838)"/>
        <path id="パス_216" data-name="パス 216" class="cls-4" d="M1303.823,469.516l5.057,52.9,43.286-30.831Z"/>
        <path id="パス_216_-_アウトライン" data-name="パス 216 - アウトライン" class="cls-4" d="M1303.824,467.016a2.5,2.5,0,0,1,1.038.226l48.344,22.072a2.5,2.5,0,0,1,.412,4.31l-43.286,30.831a2.5,2.5,0,0,1-3.939-1.8l-5.057-52.9a2.5,2.5,0,0,1,2.489-2.738Zm43.366,25.047-40.466-18.475,4.233,44.282Z"/>
        <path id="線_4" data-name="線 4" class="cls-3" d="M0,65.281a2.488,2.488,0,0,1-1.248-.335,2.5,2.5,0,0,1-.915-3.415L34.081-1.25A2.5,2.5,0,0,1,37.5-2.165a2.5,2.5,0,0,1,.915,3.415L2.165,64.03A2.5,2.5,0,0,1,0,65.281Z" transform="translate(1249.655 520.868)"/>
        <path id="線_5" data-name="線 5" class="cls-3" d="M0,65.281a2.488,2.488,0,0,1-1.248-.335,2.5,2.5,0,0,1-.915-3.415L34.081-1.25A2.5,2.5,0,0,1,37.5-2.165a2.5,2.5,0,0,1,.915,3.415L2.165,64.03A2.5,2.5,0,0,1,0,65.281Z" transform="translate(1260.658 527.221)"/>
        <path id="線_6" data-name="線 6" class="cls-3" d="M36.248,65.281a2.5,2.5,0,0,1-2.167-1.25L-2.165,1.25A2.5,2.5,0,0,1-1.25-2.165a2.5,2.5,0,0,1,3.415.915L38.411,61.53a2.5,2.5,0,0,1-2.163,3.75Z" transform="translate(1343.855 520.868)"/>
        <path id="線_7" data-name="線 7" class="cls-3" d="M36.248,65.281a2.5,2.5,0,0,1-2.167-1.25L-2.165,1.25A2.5,2.5,0,0,1-1.25-2.165a2.5,2.5,0,0,1,3.415.915L38.411,61.53a2.5,2.5,0,0,1-2.163,3.75Z" transform="translate(1332.853 527.221)"/>
      </g>
      <g id="グループ_57" data-name="グループ 57">
        <path id="パス_217" data-name="パス 217" class="cls-3" d="M1364.536,392.733h-.048a2.5,2.5,0,0,1-2.453-2.546,26.409,26.409,0,0,1,8.774-19.22,45.835,45.835,0,0,1,12.579-8.159,80.528,80.528,0,0,1,14.948-4.961,112.186,112.186,0,0,1,15.12-2.428,103.352,103.352,0,0,1,13.121-.421c9.65.361,17.59,1.135,24.595,1.818,10.149.99,18.164,1.771,26.888.93,9.4-.906,18.851-3.652,30.65-8.9a2.5,2.5,0,1,1,2.033,4.568c-17.043,7.584-28.694,9.689-40.343,9.69-6.289,0-12.575-.613-19.713-1.309-6.935-.676-14.8-1.443-24.3-1.8a98.264,98.264,0,0,0-12.472.4,107.174,107.174,0,0,0-14.444,2.318,75.538,75.538,0,0,0-14.016,4.644,40.887,40.887,0,0,0-11.214,7.241,23.759,23.759,0,0,0-5.206,6.993,20.945,20.945,0,0,0-2,8.687A2.5,2.5,0,0,1,1364.536,392.733Z"/>
        <path id="パス_218" data-name="パス 218" class="cls-3" d="M1357.961,411.327h-.047a2.5,2.5,0,0,1-2.453-2.546,35.2,35.2,0,0,1,1.258-8.905,28.525,28.525,0,0,1,3.233-7.35,29.162,29.162,0,0,1,4.841-5.849,36.375,36.375,0,0,1,6.014-4.5c8.18-4.948,18.291-7.367,28.8-9.607a2.5,2.5,0,0,1,1.042,4.89c-10.075,2.147-19.741,4.45-27.255,8.995a26.808,26.808,0,0,0-9.2,8.72,23.531,23.531,0,0,0-2.663,6.063,30.22,30.22,0,0,0-1.07,7.638A2.5,2.5,0,0,1,1357.961,411.327Z"/>
        <path id="パス_219" data-name="パス 219" class="cls-3" d="M1354.094,431.916a2.5,2.5,0,0,1-2.43-1.922,21.583,21.583,0,0,1-.5-3.2,26.894,26.894,0,0,1,8.285-22.836,37.108,37.108,0,0,1,6.244-4.764c8.591-5.284,19.613-8.059,30.244-10.27a2.5,2.5,0,0,1,1.018,4.9c-10.187,2.119-20.707,4.753-28.643,9.634a32.114,32.114,0,0,0-5.4,4.114,22.973,22.973,0,0,0-3.994,5.023,20.849,20.849,0,0,0-2.355,6.147,26.359,26.359,0,0,0-.413,7.643,16.6,16.6,0,0,0,.377,2.452,2.5,2.5,0,0,1-2.434,3.079Z"/>
        <path id="パス_220" data-name="パス 220" class="cls-3" d="M1390.192,481.467a19.146,19.146,0,0,1-7.549-1.3,8.456,8.456,0,0,1-4.651-4.46,9.674,9.674,0,0,1,.393-7.548,21.949,21.949,0,0,1,5.075-7.008c4.549-4.365,9.791-5.072,14.861-5.756,4.228-.57,8.222-1.109,12.014-3.674,4.119-2.787,6.457-5.941,6.581-8.882a6.253,6.253,0,0,0-.758-3.207,10.967,10.967,0,0,0-2.88-3.331c-2.15-1.737-5.311-2.454-9.395-2.129A50.564,50.564,0,0,0,1389,438.281a135.009,135.009,0,0,0-17.992,9.4c-6.13,3.742-12.528,8.121-19.016,13.016a18.069,18.069,0,0,1-9.325,3.619,12.65,12.65,0,0,1-4.558-.419,8.341,8.341,0,0,1-3.856-2.309,7.255,7.255,0,0,1-1.812-3.65,10.134,10.134,0,0,1,.262-4.488c.851-3.177,3.054-6.785,6.55-10.724a182.913,182.913,0,0,1,16.517-16.621,95.045,95.045,0,0,1,14.664-10.7,64.105,64.105,0,0,1,13.691-6.024,69.153,69.153,0,0,1,13.425-2.6,2.5,2.5,0,1,1,.494,4.976,59.25,59.25,0,0,0-25.1,7.97,90.141,90.141,0,0,0-13.891,10.148,178.02,178.02,0,0,0-16.062,16.169c-3.706,4.176-5.014,7.035-5.46,8.7-.417,1.557-.284,2.718.394,3.453.8.862,2.424,1.286,4.351,1.135a13.2,13.2,0,0,0,6.7-2.625c6.618-4.993,13.153-9.465,19.422-13.292a139.966,139.966,0,0,1,18.672-9.743c13.519-5.64,23.392-6.062,29.344-1.254,4.749,3.837,5.608,7.9,5.492,10.638a12.9,12.9,0,0,1-2.486,6.872,23.91,23.91,0,0,1-6.289,5.939c-4.763,3.223-9.749,3.895-14.147,4.488-4.666.629-8.7,1.172-12.067,4.408a16.975,16.975,0,0,0-3.935,5.356,5.067,5.067,0,0,0-.374,3.683c.735,1.778,3.688,2.749,8.1,2.665a137.891,137.891,0,0,0,25.71-2.547c10.581-2.233,18.022-5.869,22.116-10.806,2.711-3.271,5.457-6.849,8.363-10.638,7.975-10.4,16.222-21.145,24.3-25.957,4.554-2.713,12.459-5.48,23.5-8.225,8.12-2.02,15.052-3.289,15.121-3.3a2.5,2.5,0,0,1,.9,4.919c-.068.012-6.867,1.258-14.838,3.241-10.4,2.587-18.046,5.237-22.116,7.662-7.254,4.321-15.2,14.684-22.892,24.705-2.936,3.827-5.709,7.442-8.481,10.786a31.184,31.184,0,0,1-11.014,8.066,64.888,64.888,0,0,1-13.919,4.441,142.739,142.739,0,0,1-26.647,2.653Q1390.5,481.467,1390.192,481.467Z"/>
      </g>
      <circle id="楕円形_10" data-name="楕円形 10" class="cls-5" cx="26.184" cy="26.184" r="26.184" transform="translate(1216.04 597.346)"/>
      <path id="楕円形_10_-_アウトライン" data-name="楕円形 10 - アウトライン" class="cls-5" d="M26.184-2.5A28.676,28.676,0,0,1,46.467,46.467,28.684,28.684,0,1,1,15.018-.245,28.507,28.507,0,0,1,26.184-2.5Zm0,52.369A23.691,23.691,0,0,0,35.4,4.36,23.691,23.691,0,0,0,16.966,48.009,23.534,23.534,0,0,0,26.184,49.869Z" transform="translate(1216.04 597.346)"/>
      <rect id="長方形_24" data-name="長方形 24" class="cls-5" width="43.754" height="43.754" transform="translate(1365.655 601.654)"/>
      <path id="長方形_24_-_アウトライン" data-name="長方形 24 - アウトライン" class="cls-5" d="M0-2.5H43.754a2.5,2.5,0,0,1,2.5,2.5V43.754a2.5,2.5,0,0,1-2.5,2.5H0a2.5,2.5,0,0,1-2.5-2.5V0A2.5,2.5,0,0,1,0-2.5Zm41.254,5H2.5V41.254H41.254Z" transform="translate(1365.655 601.654)"/>
    </g>
  </g>
</svg>
