<svg xmlns="http://www.w3.org/2000/svg" xmlns:xlink="http://www.w3.org/1999/xlink" width="329.919" height="196.386" viewBox="0 0 329.919 196.386">
  <defs>
    <clipPath id="clip-path">
      <rect id="Rectangle_36" data-name="Rectangle 36" width="329.919" height="196.386" fill="none"/>
    </clipPath>
  </defs>
  <g id="Group_93" data-name="Group 93" transform="translate(0 0)">
    <g id="Group_90" data-name="Group 90" transform="translate(0 0)" clip-path="url(#clip-path)">
      <path id="Path_245" data-name="Path 245" d="M114.525,33.388a28.8,28.8,0,0,1-6.009,11.164c-2.14,2.73-3.828,4.887-4.3,8.933-.338,2.885-.505,5.365-.505,5.365A73.631,73.631,0,0,1,120.677,63.1c.556-4.076-.277-9.074-1.138-14.24A82.114,82.114,0,0,1,118,34.667a2.892,2.892,0,0,0-.524-1.694,6.518,6.518,0,0,1-2.4.455c-.181,0-.364-.027-.548-.04" transform="translate(172.02 54.692)" fill="#e989ae"/>
      <path id="Path_246" data-name="Path 246" d="M95.531,33.388a28.8,28.8,0,0,0,6.009,11.164c2.14,2.73,3.828,4.887,4.3,8.933.338,2.885.505,5.365.505,5.365A73.631,73.631,0,0,0,89.379,63.1c-.556-4.076.277-9.074,1.138-14.24a82.117,82.117,0,0,0,1.542-14.195,2.892,2.892,0,0,1,.524-1.694,6.518,6.518,0,0,0,2.4.455c.181,0,.364-.027.548-.04" transform="translate(147.953 54.692)" fill="#e989ae"/>
      <path id="Path_247" data-name="Path 247" d="M10.385,84.158a20.524,20.524,0,0,0,8.476,1.864,16.9,16.9,0,0,0,7.17-1.547c6.407-2.983,8.043-6.554,8.25-10.595a13.518,13.518,0,0,1,2.988,7.069,2.363,2.363,0,0,0,2.345,2.087,2.449,2.449,0,0,0,.277-.016A2.362,2.362,0,0,0,41.965,80.4c-.606-5.179-2.866-8.058-5.049-10.845-1.986-2.534-3.874-4.95-4.892-9.4A10.789,10.789,0,0,0,49.84,55.243a10.789,10.789,0,0,0,17.816,4.911c-1.021,4.451-2.906,6.867-4.892,9.4-2.185,2.786-4.443,5.666-5.049,10.845a2.362,2.362,0,0,0,2.071,2.621,2.46,2.46,0,0,0,.279.016,2.363,2.363,0,0,0,2.342-2.087c.452-3.86,2.05-5.9,4.076-8.479a26.472,26.472,0,0,0,5.6-10.539,6.774,6.774,0,0,0,.763.053,5.656,5.656,0,0,0,2.8-.723c2.148-1.207,3.406-3.7,3.544-7.006A7.344,7.344,0,0,0,76.9,48.205a5.862,5.862,0,0,0-.763-.545,17.588,17.588,0,0,0,1.194-8.776,24.744,24.744,0,0,0-5.846-13.99c-4.14-4.778-10.172-7.734-17.446-8.548a2.363,2.363,0,0,0-2.627,2.348v6.817a2.364,2.364,0,0,0,1.917,2.321c6.939,1.337,14.567,9.21,15.848,18.4A10.8,10.8,0,0,0,49.84,49.364,10.8,10.8,0,0,0,30.5,46.23c1.281-9.188,8.912-17.061,15.851-18.4a2.364,2.364,0,0,0,1.917-2.321V18.694a2.367,2.367,0,0,0-2.627-2.348c-7.274.814-13.307,3.77-17.446,8.548a24.752,24.752,0,0,0-5.846,13.99,17.648,17.648,0,0,0,1.17,8.726,5.336,5.336,0,0,0-1.329,1.016,7.526,7.526,0,0,0-1.7,5.631c.138,3.31,1.4,5.8,3.547,7.006a5.656,5.656,0,0,0,2.8.723,6.817,6.817,0,0,0,.763-.053,24.38,24.38,0,0,0,1.1,3.318c-9.329,1.417-12.408,6.841-13.9,10.967-1.186,3.268-3.159,3.456-3.307,3.467h-.043a2.362,2.362,0,0,0-1.058,4.475m62.95-27.018c-.558.314-1.417-.069-1.88-.324a1.368,1.368,0,0,0-.144-.061,2.193,2.193,0,0,0-.229-.1c-.08-.027-.162-.045-.242-.064a1.408,1.408,0,0,0-.152-.04.437.437,0,0,0-.061-.005c-.088-.011-.175-.013-.263-.016-.056,0-.114-.008-.17-.005a10.758,10.758,0,0,0,.859-4.225c0-.269-.021-.534-.04-.8a2.305,2.305,0,0,0,.954.013,2.268,2.268,0,0,1,1.85.271,2.859,2.859,0,0,1,.651,2.273c-.077,1.848-.659,2.813-1.135,3.081m-13.1-10.927A6.09,6.09,0,1,1,54.15,52.3a6.1,6.1,0,0,1,6.088-6.088m-20.8,0A6.09,6.09,0,1,1,33.351,52.3a6.094,6.094,0,0,1,6.091-6.088m-13.1,10.927c-.476-.269-1.061-1.236-1.138-3.081a3.427,3.427,0,0,1,.444-2.223.938.938,0,0,1,.726-.258,2.316,2.316,0,0,0,1.037-.287,2.256,2.256,0,0,0,.513.074,2.339,2.339,0,0,0,.752-.125c-.035.351-.053.7-.053,1.061a10.748,10.748,0,0,0,.859,4.225c-.053,0-.109.005-.162.005-.093,0-.181.005-.271.016a.437.437,0,0,0-.061.005,1.407,1.407,0,0,0-.152.04,2.492,2.492,0,0,0-.242.064c-.08.027-.154.064-.231.1-.045.021-.1.035-.144.061-.46.255-1.321.635-1.877.324" transform="translate(15.063 27.087)" fill="#1b519f"/>
      <path id="Path_248" data-name="Path 248" d="M70.48,23.483a2.363,2.363,0,0,0,3.895-2.677,6.52,6.52,0,0,0-9.523-1.369,2.363,2.363,0,1,0,2.97,3.677,1.966,1.966,0,0,1,1.523-.393,1.916,1.916,0,0,1,1.135.763" transform="translate(106.112 29.788)" fill="#003d85"/>
      <path id="Path_249" data-name="Path 249" d="M60,18.087A6.658,6.658,0,0,0,55.919,20.8a2.362,2.362,0,0,0,3.887,2.685,1.919,1.919,0,0,1,1.138-.768,1.977,1.977,0,0,1,1.523.388,2.362,2.362,0,1,0,2.975-3.669A6.69,6.69,0,0,0,60,18.087" transform="translate(92.058 29.788)" fill="#003d85"/>
      <path id="Path_250" data-name="Path 250" d="M52.037,47.819a9.286,9.286,0,0,0-1.513,5.8c.162,3.908,1.622,6.83,4.113,8.229a6.468,6.468,0,0,0,3.2.824,7.639,7.639,0,0,0,1.375-.144c1.558,6.458,4.424,10.119,6.987,13.389,2.983,3.8,5.339,6.812,5.339,13.713a2.362,2.362,0,1,0,4.724,0c0-8.534-3.225-12.65-6.344-16.627-2.683-3.422-5.456-6.958-6.6-13.99a1.5,1.5,0,0,0-.04-.146c-.019-.082-.037-.165-.064-.247s-.064-.154-.1-.229c-.024-.048-.037-.1-.061-.144-.011-.019-.027-.032-.037-.051a2.324,2.324,0,0,0-.146-.213c-.043-.056-.082-.114-.13-.167s-.109-.106-.165-.16-.112-.106-.173-.152-.125-.08-.189-.12a1.8,1.8,0,0,0-.2-.114,2.127,2.127,0,0,0-.215-.085c-.069-.024-.136-.053-.207-.072a4.857,4.857,0,0,0-.455-.074c-.072-.005-.144,0-.215,0s-.167.005-.253.016l-.064,0c-.056.011-.1.029-.157.043a2.336,2.336,0,0,0-.234.064,2.282,2.282,0,0,0-.234.1,1.324,1.324,0,0,0-.141.061,3.151,3.151,0,0,1-2.893.4c-.978-.55-1.616-2.159-1.7-4.3a4.044,4.044,0,0,1,1.008-3.281,2.122,2.122,0,0,1,.569-.343,16.033,16.033,0,0,0,1.991.149,8.492,8.492,0,0,0,5.8-1.933c3.478-3.055,3.132-8.611,2.853-13.075a23.282,23.282,0,0,1-.043-4.411,5.092,5.092,0,0,1,2.063-3.706,5.93,5.93,0,0,1,3.839-.63C76.292,30.537,90.2,48.808,115.4,49.738c.271.048.54.082.8.106a1.45,1.45,0,0,1,.683.4,4.594,4.594,0,0,1,.7,3.172c-.09,2.146-.726,3.754-1.7,4.3a3.151,3.151,0,0,1-2.893-.4,1.323,1.323,0,0,0-.141-.061,2.283,2.283,0,0,0-.234-.1,2.337,2.337,0,0,0-.234-.064c-.053-.011-.1-.032-.157-.043l-.064,0c-.082-.011-.165-.013-.25-.016s-.146-.005-.221,0-.146.019-.221.029-.157.024-.234.045-.133.045-.2.069-.152.053-.223.088-.128.074-.191.112-.13.077-.191.122-.114.1-.17.149a1.938,1.938,0,0,0-.167.162,2.012,2.012,0,0,0-.13.167c-.051.069-.1.138-.149.213l-.035.051c-.024.048-.037.1-.061.144-.035.074-.069.149-.1.229s-.045.165-.064.247a1.5,1.5,0,0,0-.04.146c-1.141,7.032-3.914,10.568-6.6,13.99-3.119,3.977-6.344,8.093-6.344,16.627a2.362,2.362,0,1,0,4.724,0c0-6.9,2.356-9.909,5.339-13.713,2.563-3.27,5.429-6.931,6.984-13.389a7.692,7.692,0,0,0,1.377.144,6.468,6.468,0,0,0,3.2-.824c2.489-1.4,3.951-4.32,4.113-8.229a10.2,10.2,0,0,0-.931-5.086,8.943,8.943,0,0,0,2.919-3.706c3.61-8.029-.029-26.443-13.947-37.022C101.812,1.313,91.781-1.359,83.518.662A18.025,18.025,0,0,0,72.112,8.789a16.088,16.088,0,0,0-15.8,2.877c-7.835,6.455-10.672,19.2-8.885,27.783a14.094,14.094,0,0,0,4.61,8.37" transform="translate(77.811 0.001)" fill="#1b519f"/>
      <path id="Path_251" data-name="Path 251" d="M111.539,35.025c-25.919,0-46.088,7.995-59.945,23.763-15.816,18-22.277,45.264-18.193,76.783a2.363,2.363,0,0,0,2.34,2.058,2.392,2.392,0,0,0,.306-.019,2.363,2.363,0,0,0,2.039-2.648c-3.906-30.149,2.154-56.1,17.058-73.053,12.921-14.7,31.9-22.16,56.4-22.16s43.477,7.458,56.4,22.16c14.9,16.96,20.961,42.9,17.055,73.053a2.362,2.362,0,1,0,4.685.609c4.084-31.519-2.377-58.786-18.191-76.783-13.86-15.769-34.028-23.763-59.948-23.763" transform="translate(53.419 58.096)" fill="#1b519f"/>
      <path id="Path_252" data-name="Path 252" d="M81.36,53.557a2.362,2.362,0,0,0-2.159,2.55l4.049,48.63A2.361,2.361,0,0,0,85.6,106.9a1.669,1.669,0,0,0,.2-.011,2.361,2.361,0,0,0,2.159-2.55L83.91,55.716a2.361,2.361,0,0,0-2.55-2.159" transform="translate(131.356 88.821)" fill="#1b519f"/>
      <path id="Path_253" data-name="Path 253" d="M48.2,53.557a2.363,2.363,0,0,0-2.55,2.159l-4.049,48.627a2.363,2.363,0,0,0,2.159,2.55,1.669,1.669,0,0,0,.2.011,2.361,2.361,0,0,0,2.35-2.167l4.049-48.63a2.362,2.362,0,0,0-2.159-2.55" transform="translate(68.998 88.821)" fill="#1b519f"/>
      <path id="Path_254" data-name="Path 254" d="M63.715,44.787a2.679,2.679,0,1,0,2.677,2.677,2.678,2.678,0,0,0-2.677-2.677" transform="translate(101.243 74.288)" fill="#d16f97"/>
      <path id="Path_255" data-name="Path 255" d="M63.715,52.04a2.679,2.679,0,1,0,2.677,2.677,2.678,2.678,0,0,0-2.677-2.677" transform="translate(101.243 86.319)" fill="#d16f97"/>
      <path id="Path_256" data-name="Path 256" d="M63.715,59.293a2.679,2.679,0,1,0,2.677,2.677,2.678,2.678,0,0,0-2.677-2.677" transform="translate(101.243 98.349)" fill="#d16f97"/>
      <path id="Path_257" data-name="Path 257" d="M63.715,66.546a2.677,2.677,0,1,0,2.677,2.677,2.678,2.678,0,0,0-2.677-2.677" transform="translate(101.243 110.379)" fill="#d16f97"/>
      <path id="Path_258" data-name="Path 258" d="M95.753,41.935a26.389,26.389,0,0,0,5.6,10.536c2.023,2.584,3.621,4.623,4.073,8.481a2.364,2.364,0,0,0,2.345,2.09c.09,0,.183-.008.276-.016a2.394,2.394,0,0,0,.718-.215,2.359,2.359,0,0,0,1.356-2.409c-.606-5.176-2.866-8.058-5.049-10.845-2.22-2.831-4.318-5.506-5.216-11.047a1.363,1.363,0,0,0-.04-.149c-.019-.082-.037-.162-.064-.245s-.066-.157-.1-.237c-.021-.045-.035-.093-.058-.136l-.035-.051a2.456,2.456,0,0,0-.152-.218,1.905,1.905,0,0,0-.128-.162c-.051-.058-.109-.109-.165-.162S99,37.045,98.941,37s-.117-.074-.175-.112-.138-.088-.21-.125-.13-.051-.194-.074a2.392,2.392,0,0,0-.231-.082c-.066-.016-.133-.024-.2-.037-.085-.013-.17-.029-.255-.035-.064-.005-.13,0-.194,0-.093,0-.183.005-.274.016l-.058.005A1.362,1.362,0,0,0,97,36.6c-.082.019-.165.037-.245.064s-.154.064-.229.1c-.048.024-.1.037-.146.061-.46.258-1.319.638-1.877.324-.476-.266-1.061-1.236-1.138-3.081a2.883,2.883,0,0,1,.651-2.273,2.271,2.271,0,0,1,1.85-.271,2.343,2.343,0,0,0,1.877-.447,5.294,5.294,0,0,1-3.283.247c-.053-.011-.106-.027-.16-.04a5.953,5.953,0,0,1-3.547-2.893,7.421,7.421,0,0,0-2.111,5.873c.138,3.31,1.4,5.8,3.547,7.006a5.585,5.585,0,0,0,1.675.606,5.848,5.848,0,0,0,1.125.12,6.251,6.251,0,0,0,.763-.056" transform="translate(147.017 47.084)" fill="#1b519f"/>
      <path id="Path_259" data-name="Path 259" d="M117.764,31.24a2.281,2.281,0,0,0,.471.064.92.92,0,0,1,.728.258,3.414,3.414,0,0,1,.444,2.22c-.077,1.848-.662,2.816-1.138,3.081-.558.314-1.417-.066-1.877-.322-.048-.027-.1-.04-.146-.064a2.176,2.176,0,0,0-.229-.1,1.918,1.918,0,0,0-.242-.066c-.051-.011-.1-.032-.149-.04l-.061,0a1.805,1.805,0,0,0-.266-.016,1.752,1.752,0,0,0-.2,0,2.253,2.253,0,0,0-.234.035,2.185,2.185,0,0,0-.223.04c-.069.019-.138.048-.2.072s-.149.053-.218.085-.128.074-.191.112-.133.08-.194.125a2.052,2.052,0,0,0-.162.141,2.181,2.181,0,0,0-.178.173c-.043.048-.08.1-.12.154a2.635,2.635,0,0,0-.157.226.3.3,0,0,0-.032.048c-.024.043-.037.09-.058.136a2.17,2.17,0,0,0-.1.239,2.5,2.5,0,0,0-.064.242c-.011.051-.032.1-.04.149-.9,5.541-3,8.215-5.216,11.049-2.183,2.784-4.44,5.666-5.049,10.845a2.358,2.358,0,0,0,1.922,2.587,1.4,1.4,0,0,0,.152.035,2.447,2.447,0,0,0,.277.016,2.363,2.363,0,0,0,2.345-2.087c.452-3.86,2.05-5.9,4.073-8.481a26.4,26.4,0,0,0,5.6-10.539,6.256,6.256,0,0,0,.766.056,5.935,5.935,0,0,0,2.8-.726c2.146-1.207,3.4-3.693,3.544-7.006a7.676,7.676,0,0,0-1.531-5.424,5.966,5.966,0,0,1-.5.71,5.372,5.372,0,0,1-4.331,1.975" transform="translate(170.237 47.364)" fill="#1b519f"/>
      <path id="Path_260" data-name="Path 260" d="M93.777,52.084q.08.024.16.04a5.3,5.3,0,0,0,3.283-.247c3.587-1.537,4.863-7.426,6.006-12.764.282-1.313.569-2.645.877-3.892,9.114,12.679,25.856,17.119,33.864,17.119.617,0,1.18-.027,1.686-.077a6.525,6.525,0,0,0,.811.064,5.363,5.363,0,0,0,4.328-1.975,6.3,6.3,0,0,0,.505-.71c1.9-3.042,1.8-8.274-.335-13.69-2.956-7.511-8.718-12.682-15.593-14.091a9.989,9.989,0,0,0-5.224-4.544c-5.937-2.528-14.711-1.739-20.857,1.874C93.2,25.112,88.061,37.44,89.077,45.466a10.029,10.029,0,0,0,1.154,3.725,5.943,5.943,0,0,0,3.547,2.893" transform="translate(147.541 26.279)" fill="#e989ae"/>
      <path id="Path_261" data-name="Path 261" d="M167.034,61.657a53.315,53.315,0,0,0-21.347-14.7A70.722,70.722,0,0,0,126.358,42.7q-3.844-.327-7.923-.33c-2.89,0-5.695.138-8.423.388a70.442,70.442,0,0,0-19.318,4.413c-.162.064-.332.117-.492.183a2.362,2.362,0,1,0,1.768,4.382c.175-.072.359-.13.534-.2A66.142,66.142,0,0,1,111.1,47.4q3.565-.3,7.333-.3c2.334,0,4.6.09,6.806.258a66.41,66.41,0,0,1,18.725,4.012,48.707,48.707,0,0,1,19.517,13.408c11.908,13.551,16.744,34.3,13.618,58.438a2.364,2.364,0,0,0,2.039,2.648,2.388,2.388,0,0,0,.306.019,2.363,2.363,0,0,0,2.34-2.058c3.3-25.5-1.936-47.58-14.753-62.165" transform="translate(147.164 70.286)" fill="#1b519f"/>
      <path id="Path_262" data-name="Path 262" d="M145.135,57.292a2.362,2.362,0,0,0-2.159,2.55l.314,3.754H98.14a2.362,2.362,0,0,0,0,4.724h45.543l.694,8.351H98.14a2.362,2.362,0,0,0,0,4.724h46.631l.7,8.364c-.048,0-.1-.016-.144-.016H98.14a2.364,2.364,0,0,0,0,4.727h47.184a2.307,2.307,0,0,0,.529-.066l.383,4.578a2.361,2.361,0,0,0,2.35,2.167q.1,0,.2-.008a2.364,2.364,0,0,0,2.159-2.55l-3.26-39.141a2.361,2.361,0,0,0-2.55-2.159" transform="translate(158.867 95.017)" fill="#1b519f"/>
      <path id="Path_263" data-name="Path 263" d="M98.259,29.224a2.677,2.677,0,1,0,2.677,2.677,2.678,2.678,0,0,0-2.677-2.677" transform="translate(158.54 48.474)" fill="#1b519f"/>
      <path id="Path_264" data-name="Path 264" d="M107.118,31.9a2.679,2.679,0,1,0-2.677,2.677,2.678,2.678,0,0,0,2.677-2.677" transform="translate(168.789 48.474)" fill="#1b519f"/>
      <path id="Path_265" data-name="Path 265" d="M93.857,50.434a2.362,2.362,0,0,0-1.308-3.076,75.354,75.354,0,0,0-28.233-4.985c-21,0-37.352,6.487-48.6,19.286C2.9,76.245-2.339,98.32.965,123.822a2.361,2.361,0,0,0,2.34,2.06,2.4,2.4,0,0,0,.306-.021,2.362,2.362,0,0,0,2.039-2.645C2.523,99.08,7.36,78.326,19.268,64.778,29.578,53.048,44.735,47.1,64.317,47.1a70.629,70.629,0,0,1,26.465,4.645,2.364,2.364,0,0,0,3.076-1.308" transform="translate(0 70.284)" fill="#e989ae"/>
      <path id="Path_266" data-name="Path 266" d="M13.377,57.292a2.367,2.367,0,0,0-2.55,2.159L7.568,98.592a2.364,2.364,0,0,0,2.159,2.55c.064.005.133.008.2.008a2.364,2.364,0,0,0,2.353-2.167l3.257-39.141a2.362,2.362,0,0,0-2.159-2.55" transform="translate(12.54 95.017)" fill="#e989ae"/>
      <path id="Path_267" data-name="Path 267" d="M18.393,46.564a2.364,2.364,0,0,0-2.364,2.364v67.86a2.364,2.364,0,0,0,4.727,0V48.928a2.364,2.364,0,0,0-2.364-2.364" transform="translate(26.587 77.236)" fill="#e989ae"/>
      <path id="Path_268" data-name="Path 268" d="M35.742,57.879V48.928a2.362,2.362,0,1,0-4.724,0v8.952a2.362,2.362,0,1,0,4.724,0" transform="translate(51.449 77.236)" fill="#e989ae"/>
    </g>
  </g>
</svg>
