<svg xmlns="http://www.w3.org/2000/svg" xmlns:xlink="http://www.w3.org/1999/xlink" width="145.805" height="233.558" viewBox="0 0 145.805 233.558">
  <defs>
    <clipPath id="clip-path">
      <rect id="Rectangle_37" data-name="Rectangle 37" width="145.805" height="233.558" fill="none"/>
    </clipPath>
  </defs>
  <g id="Group_92" data-name="Group 92" transform="translate(0 0)">
    <g id="Group_92-2" data-name="Group 92" transform="translate(0 0)" clip-path="url(#clip-path)">
      <path id="Path_271" data-name="Path 271" d="M94.853,106.489V13.357a2.492,2.492,0,0,0-2.491-2.491H14.772a2.492,2.492,0,0,0-2.491,2.491v87.181l6.072,6.072a13.532,13.532,0,0,1,0,19.11h0a13.413,13.413,0,0,1-1.05.86H86.535c2.547-1.748,4.612-2.967,5.816-3.631.426-2.671,1.481-9.373,2.5-16.46M77.3,69.482C72.357,77.5,55.918,92.131,55.22,92.75a2.485,2.485,0,0,1-3.306,0c-.7-.619-17.137-15.254-22.083-23.268C26.107,63.45,25.644,56.389,28.62,51.06A13.8,13.8,0,0,1,41.11,44.067a16.05,16.05,0,0,1,12.456,6.181,16.05,16.05,0,0,1,12.456-6.181A13.8,13.8,0,0,1,78.514,51.06c2.975,5.329,2.512,12.39-1.211,18.423" transform="translate(20.198 17.87)" fill="#e989ae"/>
      <path id="Path_273" data-name="Path 273" d="M139.524,94.052a12.484,12.484,0,0,0-12.578-1.082v-75.9A17.086,17.086,0,0,0,109.88,0H37.652A17.086,17.086,0,0,0,20.586,17.066V51.034a13.389,13.389,0,0,0-8.4,3.843,13.529,13.529,0,0,0,0,19.108l3.269,3.269a13.466,13.466,0,0,0-8.238,22.94l7.918,7.915a13.387,13.387,0,0,0-8.243,3.827,13.526,13.526,0,0,0,0,19.108l5.3,5.3a13.38,13.38,0,0,0-8.241,3.827,13.526,13.526,0,0,0,0,19.108L16.5,171.824a13.379,13.379,0,0,0,7.807,3.785c.465,2.557.968,5.022,1.507,7.357,4.845,20.88,12.808,31.474,15.225,34.322v11.9a2.49,2.49,0,0,0,4.98,0V216.341a2.5,2.5,0,0,0-.7-1.73c-.093-.1-9.357-9.949-14.651-32.77-.481-2.071-.926-4.258-1.343-6.516a13.421,13.421,0,0,0,2.891-1.1,16.99,16.99,0,0,0,5.437.9H80.115a56.229,56.229,0,0,0-4.655,27.851,2.49,2.49,0,1,0,4.932-.69A52.514,52.514,0,0,1,88.6,169.763c10.719-16.63,27.163-25.018,27.327-25.1a2.493,2.493,0,0,0,1.343-1.827c.151-.928,3.7-22.858,4.795-34.135.51-5.276,3.1-9.457,6.918-11.184a7.46,7.46,0,0,1,7.627.574c3.258,2.354,4.731,7.487,4.044,14.085-.259,2.465-.526,6.416-.865,11.417-1.066,15.749-2.854,42.1-7.035,60.132-5.295,22.823-14.559,32.675-14.646,32.767a2.49,2.49,0,0,0-.706,1.735v12.842a2.49,2.49,0,0,0,4.98,0v-11.9c2.417-2.848,10.38-13.443,15.225-34.322,4.271-18.42,6.072-45.025,7.151-60.922.336-4.951.6-8.86.849-11.235,1.2-11.531-3.293-16.63-6.083-18.642M20.02,168.3,7.474,155.755a8.532,8.532,0,0,1,12.065-12.068l12.549,12.549A8.533,8.533,0,1,1,20.02,168.3m-3.57-55.342a8.509,8.509,0,0,1,6.035,2.494L35.031,128a8.532,8.532,0,0,1-12.065,12.068L10.417,127.523a8.528,8.528,0,0,1,6.032-14.561m.325-30.855a8.462,8.462,0,0,1,3.811.936v23.474L10.743,96.67a8.532,8.532,0,0,1,6.032-14.564m3.811-6.765-4.877-4.877a8.548,8.548,0,0,1,0-12.068,8.463,8.463,0,0,1,4.877-2.385ZM37.5,144.451a12.876,12.876,0,0,0,1.053-.86,13.526,13.526,0,0,0,0-19.108l-6.072-6.075V31.228a2.49,2.49,0,0,1,2.489-2.491h77.592a2.49,2.49,0,0,1,2.489,2.491V124.36c-1.018,7.088-2.076,13.789-2.5,16.46-1.2.666-3.266,1.883-5.813,3.631Z" transform="translate(0 -0.001)" fill="#1b519f"/>
    </g>
  </g>
</svg>
