<svg xmlns="http://www.w3.org/2000/svg" width="291.845" height="216.966" viewBox="0 0 291.845 216.966">
  <defs>
    <style>
      .cls-1 {
        fill: none;
      }

      .cls-2 {
        fill: #1b519f;
      }

      .cls-3 {
        fill: #faf9f5;
      }

      .cls-4 {
        fill: #e989ae;
      }
    </style>
  </defs>
  <g id="グループ_60" data-name="グループ 60" transform="translate(-1105.89 -631.308)">
    <path id="パス_221" data-name="パス 221" class="cls-1" d="M1383.678,718.518h6.819l-3.425-7.981Z"/>
    <path id="パス_222" data-name="パス 222" class="cls-1" d="M1316.265,726.635a6.872,6.872,0,0,0,7.434,0,7.528,7.528,0,0,0,2.524-2.949,9.781,9.781,0,0,0,0-8.287,7.545,7.545,0,0,0-2.524-2.95,6.877,6.877,0,0,0-7.434,0,7.416,7.416,0,0,0-2.507,2.933,10,10,0,0,0,0,8.3A7.376,7.376,0,0,0,1316.265,726.635Z"/>
    <path id="パス_223" data-name="パス 223" class="cls-1" d="M1156.431,708.764a6.879,6.879,0,0,0-7.435,0,7.438,7.438,0,0,0-2.507,2.932,10,10,0,0,0,0,8.3A7.393,7.393,0,0,0,1149,722.95a6.874,6.874,0,0,0,7.435,0,7.525,7.525,0,0,0,2.523-2.949,9.781,9.781,0,0,0,0-8.287A7.542,7.542,0,0,0,1156.431,708.764Z"/>
    <path id="パス_224" data-name="パス 224" class="cls-2" d="M1268.376,690.013a2.5,2.5,0,0,0,4.121-2.832,7.1,7.1,0,0,0-10.369-1.487,2.5,2.5,0,1,0,3.15,3.882,2.338,2.338,0,0,1,1.775-.453A2.2,2.2,0,0,1,1268.376,690.013Z"/>
    <path id="パス_225" data-name="パス 225" class="cls-2" d="M1241.191,684.223a7.227,7.227,0,0,0-4.448,2.958,2.5,2.5,0,0,0,4.121,2.832,2.2,2.2,0,0,1,1.324-.89,2.326,2.326,0,0,1,1.774.453,2.5,2.5,0,1,0,3.15-3.882A7.287,7.287,0,0,0,1241.191,684.223Z"/>
    <path id="パス_226" data-name="パス 226" class="cls-2" d="M1216.774,684.03a10.083,10.083,0,0,0-1.719,6.426c.178,4.28,1.772,7.477,4.488,9a7.015,7.015,0,0,0,3.479.9,8.346,8.346,0,0,0,1.6-.181c1.711,7.182,4.884,11.24,7.725,14.864,3.309,4.223,5.923,7.558,5.923,15.228a2.5,2.5,0,0,0,5,0c0-9.4-3.552-13.929-6.989-18.313-2.973-3.792-6.046-7.713-7.311-15.511-.009-.055-.03-.1-.042-.157a2.384,2.384,0,0,0-.07-.259,2.485,2.485,0,0,0-.1-.242c-.024-.051-.038-.1-.066-.153-.011-.02-.026-.035-.038-.055a2.277,2.277,0,0,0-.149-.215c-.048-.065-.094-.131-.147-.19s-.1-.1-.155-.149a2.519,2.519,0,0,0-.206-.181c-.051-.037-.106-.067-.16-.1a2.328,2.328,0,0,0-.25-.146c-.058-.028-.12-.048-.18-.071a2.363,2.363,0,0,0-.268-.094c-.065-.017-.132-.025-.2-.037a2.6,2.6,0,0,0-.279-.04c-.068,0-.136,0-.2,0a2.707,2.707,0,0,0-.286.016c-.022,0-.044,0-.066,0-.055.009-.106.031-.16.043a1.839,1.839,0,0,0-.5.172c-.05.024-.1.038-.152.065-.94.522-2.278,1.02-3.3.444-1.115-.627-1.841-2.441-1.941-4.852a4.572,4.572,0,0,1,1.152-3.716,2.467,2.467,0,0,1,.685-.409,17.444,17.444,0,0,0,2.216.169,9.278,9.278,0,0,0,6.342-2.107c3.8-3.342,3.422-9.453,3.117-14.364a25.793,25.793,0,0,1-.046-4.9,5.749,5.749,0,0,1,2.331-4.173,6.718,6.718,0,0,1,4.366-.7c3.2,4.716,18.567,24.992,46.455,26.02.31.055.614.092.916.12a1.675,1.675,0,0,1,.8.479,5.165,5.165,0,0,1,.807,3.586c-.1,2.412-.826,4.226-1.941,4.853-1.026.576-2.363.078-3.3-.444-.049-.027-.1-.041-.153-.065a2.464,2.464,0,0,0-.241-.1,2.643,2.643,0,0,0-.257-.068c-.054-.013-.1-.034-.159-.043-.022,0-.043,0-.065,0a2.65,2.65,0,0,0-.283-.016c-.071,0-.142-.006-.212,0a2.574,2.574,0,0,0-.262.038c-.073.012-.147.021-.218.04a2.365,2.365,0,0,0-.241.085c-.07.026-.141.049-.208.081a2.441,2.441,0,0,0-.221.13c-.064.039-.128.075-.188.119a6.077,6.077,0,0,0-.36.33c-.049.054-.09.115-.135.174a2.429,2.429,0,0,0-.159.23c-.011.019-.026.033-.036.052-.026.048-.04.1-.063.147a2.3,2.3,0,0,0-.107.249c-.029.085-.048.171-.068.257-.013.053-.033.1-.042.158-1.266,7.8-4.339,11.719-7.312,15.511-3.436,4.384-6.989,8.916-6.989,18.313a2.5,2.5,0,0,0,5,0c0-7.67,2.614-11.005,5.924-15.228,2.841-3.624,6.013-7.682,7.724-14.864a8.346,8.346,0,0,0,1.6.181,7.015,7.015,0,0,0,3.479-.9c2.716-1.525,4.31-4.722,4.489-9a11.054,11.054,0,0,0-1.058-5.647,9.752,9.752,0,0,0,3.266-4.11c4.509-10.03-1.228-30.031-15.383-40.787-9.418-7.157-20.473-10.1-29.574-7.876a19.814,19.814,0,0,0-12.583,9.009c-8.05-2.577-13.876.194-17.443,3.132-8.629,7.109-11.75,21.143-9.782,30.6C1212.487,678.9,1214.269,682.066,1216.774,684.03Zm67.53-14.206a2.5,2.5,0,0,1-2.48,2.2,2.583,2.583,0,0,1-.3-.018c-20.733-2.493-26.936-15.429-27.19-15.978a2.5,2.5,0,0,1,4.533-2.11c.226.472,5.46,10.984,23.255,13.123A2.5,2.5,0,0,1,1284.3,669.824Z"/>
    <path id="パス_227" data-name="パス 227" class="cls-3" d="M1282.12,667.043c-17.8-2.139-23.029-12.651-23.255-13.123a2.5,2.5,0,0,0-4.533,2.11c.254.549,6.457,13.485,27.19,15.978a2.583,2.583,0,0,0,.3.018,2.5,2.5,0,0,0,.3-4.983Z"/>
    <path id="パス_228" data-name="パス 228" class="cls-4" d="M1123.18,703.921a2.143,2.143,0,0,0-1.5.6,1.932,1.932,0,0,0-.649,1.484v7.843h-10.879V706a1.957,1.957,0,0,0-.631-1.484,2.045,2.045,0,0,0-1.449-.6,2.156,2.156,0,0,0-1.568.6,1.986,1.986,0,0,0-.614,1.484v19.711a2.015,2.015,0,0,0,2.114,2.08,2.146,2.146,0,0,0,1.5-.6,1.933,1.933,0,0,0,.647-1.483v-7.946h10.879v7.946a1.954,1.954,0,0,0,.631,1.483,2.045,2.045,0,0,0,1.449.6,2.139,2.139,0,0,0,1.586-.6,2.01,2.01,0,0,0,.6-1.483V706a2.014,2.014,0,0,0-2.114-2.081Z"/>
    <path id="パス_229" data-name="パス 229" class="cls-4" d="M1163.455,720.632a13.788,13.788,0,0,0,0-9.549,12.158,12.158,0,0,0-2.4-3.905,11.129,11.129,0,0,0-3.683-2.643,11.266,11.266,0,0,0-4.655-.955,11.057,11.057,0,0,0-8.3,3.6,12.158,12.158,0,0,0-2.4,3.905,13.788,13.788,0,0,0,0,9.549,12.132,12.132,0,0,0,2.4,3.9,11.34,11.34,0,0,0,16.642,0A12.131,12.131,0,0,0,1163.455,720.632Zm-4.5-.631a7.525,7.525,0,0,1-2.523,2.949,6.874,6.874,0,0,1-7.435,0,7.393,7.393,0,0,1-2.507-2.949,10,10,0,0,1,0-8.3,7.438,7.438,0,0,1,2.507-2.932,6.879,6.879,0,0,1,7.435,0,7.542,7.542,0,0,1,2.523,2.95,9.781,9.781,0,0,1,0,8.287Z"/>
    <path id="パス_230" data-name="パス 230" class="cls-4" d="M1182.279,727.793a2.087,2.087,0,0,0,1.57-.6,2.046,2.046,0,0,0,.579-1.483v-5.37l3.228-3.089,7.412,9.755a1.816,1.816,0,0,0,1.535.784,2.434,2.434,0,0,0,1.6-.6,1.922,1.922,0,0,0,.717-1.551,2.312,2.312,0,0,0-.478-1.4l-7.6-10.045,7.426-7.108a1.856,1.856,0,0,0,.615-1.33,2.161,2.161,0,0,0-.529-1.347,1.649,1.649,0,0,0-1.347-.665,2.349,2.349,0,0,0-1.671.784l-10.913,10.753V706a2.08,2.08,0,0,0-.563-1.484,1.985,1.985,0,0,0-1.517-.6,2.156,2.156,0,0,0-1.569.6,1.986,1.986,0,0,0-.614,1.484v19.711a2.015,2.015,0,0,0,2.114,2.08Z"/>
    <path id="パス_231" data-name="パス 231" class="cls-4" d="M1311.678,724.536a11.338,11.338,0,0,0,16.641,0,12.134,12.134,0,0,0,2.405-3.9,13.8,13.8,0,0,0,0-9.549,12.161,12.161,0,0,0-2.405-3.905,11.123,11.123,0,0,0-3.682-2.643,11.267,11.267,0,0,0-4.656-.955,11.058,11.058,0,0,0-8.3,3.6,12.18,12.18,0,0,0-2.405,3.905,13.8,13.8,0,0,0,0,9.549A12.153,12.153,0,0,0,1311.678,724.536Zm2.08-12.84a7.42,7.42,0,0,1,2.507-2.932,6.877,6.877,0,0,1,7.434,0,7.545,7.545,0,0,1,2.524,2.95,9.781,9.781,0,0,1,0,8.287,7.528,7.528,0,0,1-2.524,2.949,6.872,6.872,0,0,1-7.434,0,7.376,7.376,0,0,1-2.507-2.949,10,10,0,0,1,0-8.3Z"/>
    <path id="パス_232" data-name="パス 232" class="cls-4" d="M1362.439,703.921H1347.3a2.158,2.158,0,0,0-1.484.529,1.8,1.8,0,0,0-.6,1.415,1.849,1.849,0,0,0,.6,1.433,2.119,2.119,0,0,0,1.484.545h5.353v17.87a1.979,1.979,0,0,0,.615,1.483,2.15,2.15,0,0,0,1.568.6,2.259,2.259,0,0,0,1.62-.6,1.954,1.954,0,0,0,.631-1.483v-17.87h5.354a2.161,2.161,0,0,0,1.484-.528,1.8,1.8,0,0,0,.6-1.415,1.854,1.854,0,0,0-.6-1.433A2.123,2.123,0,0,0,1362.439,703.921Z"/>
    <path id="パス_233" data-name="パス 233" class="cls-4" d="M1397.565,725.133l-8.389-19.983a2.025,2.025,0,0,0-.767-1.007,2,2,0,0,0-1.142-.358,1.784,1.784,0,0,0-1.211.307,2.222,2.222,0,0,0-.836,1.058l-8.491,20.392a2.24,2.24,0,0,0-.1.649,1.853,1.853,0,0,0,.443,1.261,1.709,1.709,0,0,0,1.365.512,1.794,1.794,0,0,0,1.074-.358,2.1,2.1,0,0,0,.733-1.006l1.769-4.16h10.169l1.771,4.126a2.436,2.436,0,0,0,.768,1.023,1.787,1.787,0,0,0,1.108.375,1.951,1.951,0,0,0,1.909-2.012A2.291,2.291,0,0,0,1397.565,725.133Zm-13.887-6.615,3.393-7.981,3.425,7.981Z"/>
    <path id="パス_234" data-name="パス 234" class="cls-4" d="M1269.818,774.569a16.112,16.112,0,0,0-12.505,6.206,16.12,16.12,0,0,0-12.507-6.206,13.859,13.859,0,0,0-12.542,7.02c-2.987,5.353-2.52,12.44,1.218,18.5,4.966,8.045,21.47,22.74,22.17,23.361a2.5,2.5,0,0,0,3.321,0c.7-.621,17.2-15.316,22.169-23.361,3.738-6.057,4.205-13.144,1.218-18.5A13.859,13.859,0,0,0,1269.818,774.569Z"/>
    <path id="パス_235" data-name="パス 235" class="cls-2" d="M1255.426,735.087c-28.616,0-50.882,8.825-66.178,26.229-17.458,19.867-24.59,49.975-20.082,84.78a2.5,2.5,0,1,0,4.959-.643c-4.321-33.357,2.384-62.066,18.879-80.836,14.3-16.277,35.307-24.53,62.422-24.53s48.118,8.253,62.423,24.531c16.495,18.77,23.2,47.478,18.878,80.835a2.5,2.5,0,0,0,2.158,2.8,2.554,2.554,0,0,0,.324.02,2.5,2.5,0,0,0,2.477-2.178c4.508-34.8-2.623-64.912-20.082-84.779C1306.309,743.912,1284.043,735.087,1255.426,735.087Z"/>
    <path id="パス_236" data-name="パス 236" class="cls-2" d="M1308.223,789.533a2.5,2.5,0,0,0-2.285,2.7l4.475,53.75a2.5,2.5,0,0,0,2.488,2.293c.07,0,.14,0,.21-.008a2.5,2.5,0,0,0,2.285-2.7l-4.475-53.75A2.5,2.5,0,0,0,1308.223,789.533Z"/>
    <path id="パス_237" data-name="パス 237" class="cls-2" d="M1202.629,789.533a2.506,2.506,0,0,0-2.7,2.284l-4.475,53.75a2.5,2.5,0,0,0,2.284,2.7c.071.005.141.008.21.008a2.5,2.5,0,0,0,2.488-2.293l4.475-53.75A2.5,2.5,0,0,0,1202.629,789.533Z"/>
  </g>
</svg>
