<svg xmlns="http://www.w3.org/2000/svg" width="195" height="281.81" viewBox="0 0 195 281.81">
  <defs>
    <style>
      .cls-1 {
        fill: #1b519f;
        fill-rule: evenodd;
      }

      .cls-2 {
        fill: #c8c9d5;
      }

      .cls-3 {
        fill: #e989ae;
      }
    </style>
  </defs>
  <g id="グループ_16" data-name="グループ 16" transform="translate(-1301 -2961.122)">
    <path id="パス_72" data-name="パス 72" class="cls-1" d="M864.841,1154.018l5.723-1.607h0c9.24-3.856,19.351-6.073,27.721-11.568,4.414-2.895,4.852-10.039,9.371-12.767,4.161-2.513,9.66-1.094,14.491-1.643h0a46.544,46.544,0,0,1-1.5-5.606c-1.593-8.034-6.894-16.43-9.782-24.218-4.953-6.758-7.392-19.317-9.455-27.349-1.548-6.03-2.516-13.947-4.683-19.606a89.432,89.432,0,0,1-4.44-14.992c-1.884-5.651-2.108-11.608-4.192-17.214-1.736-4.671-4.285-9.936-4.521-14.911-.525-11.038-3.114-20.467-4.44-31.054-3.706-14-6.777-31.469-6.245-46.048.183-5.067.5-9.545-1.81-14.333h0c-5.124-2.773-11.31-4.144-15.373-8.317-1.3-1.338,3.739-3.918,2.3-5.108-1.932-1.6-5.556-.784-7.48.825-1.6,1.333,1.123,6.653-.9,6.176-4.531-1.068-7.161-5.949-10.742-8.923l.1.081-5.63-8.544h0l-26.9,5.487.93,5.556h0c-.11,7.826,3.8,16.828-.331,23.476-3.093,4.981-12.469.749-17.016,4.45-2.535,2.065,2.654,8.909-.491,9.8-8.26,2.344-17.286-4.335-25.646-2.387-3.682.856-2.113,10.366-5.837,9.719-4.078-.708-.465-11.649-4.6-11.532-4.585.129-2.664,10.323-6.987,11.861-5,1.781-10.912-6.622-15.455-3.873-4.574,2.771-2.573,10.38-3.861,15.569h0c10.795,10.161,26.521,24.351,32.387,30.48s5.535,7.139,3.286,11.367l-13.48,25.37h0c5.644,2.747,15.414,2.148,16.935,8.238,2.022,8.113-9.839,15.073-9.042,23.4.723,7.568,6.14,15.564,13.068,18.7,10.442,4.724,22.995,4.729,34.278,2.719,3.181-.568.382-7.07,2.711-9.309,1.326-1.273,3.46,2,5.26,1.648,2.723-.539,4.907-5.63,7.235-4.118,3.431,2.225,1.412,8.532,4.192,11.532,1.755,1.893,5.1.82,7.645,1.23h0l3.98,2.88,4.35,7.342,1.772,2.661-.081,3.55-2.5,2.745.565,2.823,4.106,2.421.565,7.018-4.109,4.2,2.337,2.742,6.684,5.565,1.45,3.551-.482,6.7,2.094,6.133,2.9,3.145.725,5.568,5.8,4.032,3.062,4.278Z" transform="translate(573.853 2088.914)"/>
    <path id="パス_73" data-name="パス 73" class="cls-2" d="M29.167,29.263a4.038,4.038,0,0,0,2.909-1.2,3.872,3.872,0,0,0,1.237-2.876,4.227,4.227,0,0,0-4.147-4.147,3.872,3.872,0,0,0-2.876,1.237,4.038,4.038,0,0,0-1.2,2.909,4.111,4.111,0,0,0,4.08,4.08Zm0,27.556Q18.8,47.656,13.75,39.8T8.7,25.719q0-9.631,6.187-15.35a20.73,20.73,0,0,1,28.593,0q6.22,5.719,6.22,15.35,0,6.22-5.083,14.079T29.167,56.82Z" transform="translate(1400.8 2956.472)"/>
    <path id="パス_74" data-name="パス 74" class="cls-2" d="M29.167,29.263a4.038,4.038,0,0,0,2.909-1.2,3.872,3.872,0,0,0,1.237-2.876,4.227,4.227,0,0,0-4.147-4.147,3.872,3.872,0,0,0-2.876,1.237,4.038,4.038,0,0,0-1.2,2.909,4.111,4.111,0,0,0,4.08,4.08Zm0,27.556Q18.8,47.656,13.75,39.8T8.7,25.719q0-9.631,6.187-15.35a20.73,20.73,0,0,1,28.593,0q6.22,5.719,6.22,15.35,0,6.22-5.083,14.079T29.167,56.82Z" transform="translate(1328.3 2999.472)"/>
    <path id="パス_75" data-name="パス 75" class="cls-3" d="M29.167,29.263a4.038,4.038,0,0,0,2.909-1.2,3.872,3.872,0,0,0,1.237-2.876,4.227,4.227,0,0,0-4.147-4.147,3.872,3.872,0,0,0-2.876,1.237,4.038,4.038,0,0,0-1.2,2.909,4.111,4.111,0,0,0,4.08,4.08Zm0,27.556Q18.8,47.656,13.75,39.8T8.7,25.719q0-9.631,6.187-15.35a20.73,20.73,0,0,1,28.593,0q6.22,5.719,6.22,15.35,0,6.22-5.083,14.079T29.167,56.82Z" transform="translate(1380.3 3059.472)"/>
    <path id="パス_76" data-name="パス 76" class="cls-2" d="M29.167,29.263a4.038,4.038,0,0,0,2.909-1.2,3.872,3.872,0,0,0,1.237-2.876,4.227,4.227,0,0,0-4.147-4.147,3.872,3.872,0,0,0-2.876,1.237,4.038,4.038,0,0,0-1.2,2.909,4.111,4.111,0,0,0,4.08,4.08Zm0,27.556Q18.8,47.656,13.75,39.8T8.7,25.719q0-9.631,6.187-15.35a20.73,20.73,0,0,1,28.593,0q6.22,5.719,6.22,15.35,0,6.22-5.083,14.079T29.167,56.82Z" transform="translate(1441.8 3147.472)"/>
  </g>
</svg>
